# xmcd
#
# Track frame offsets:
# 150
# 23787
# 45651
# 68174
# 92646
# 121702
#
# Disc length: 1943 seconds
#
# Revision: 1
# Processed by: cddbd v1.5.2PL0 Copyright (c) Steve Scherf et al.
# Submitted via: B's Recorder GOLD CDDB Client
#
DISCID=42079506
DTITLE=TEST  - test blues blues
DYEAR=2007
DGENRE=Jazz
TTITLE0=01 TEST
TTITLE1=02 TEST
TTITLE2=03 TEST
TTITLE3=04 TEST
TTITLE4=05 TEST
TTITLE5=06 TEST
EXTD=
EXTT0=
EXTT1=
EXTT2=
EXTT3=
EXTT4=
EXTT5=
PLAYORDER=
